<svg xmlns="http://www.w3.org/2000/svg" viewBox="0 0 328 600" enable-background="new 0 0 328 600"><style type="text/css">.st0{fill:#F6F9FA;} .st1{fill:#CCD5DB;} .st2{fill:#222528;} .st3{opacity:0.6;fill:#FFFFFF;enable-background:new ;} .st4{fill:#FFFFFF;}</style><path id="Rectangle_12225" class="st0" d="M28 0h272c15.5 0 28 12.5 28 28v544c0 15.5-12.5 28-28 28h-272c-15.5 0-28-12.5-28-28v-544c0-15.5 12.5-28 28-28z"/><path id="Union_209" class="st1" d="M183 17c0-1.7 1.3-3 3-3s3 1.3 3 3-1.3 3-3 3-3-1.3-3-3zm-41 3c-1.7 0-3-1.3-3-3s1.3-3 3-3h30c1.7 0 3 1.3 3 3s-1.3 3-3 3h-30z"/><path id="Rectangle_12791" class="st2" d="M12 31h304c4.4 0 8 3.6 8 8v44h-320v-44c0-4.4 3.6-8 8-8z"/><path id="Path_3109" class="st3" d="M315.5 35.9v11.3h-8.1v-11.3h2.4v-.4h3.2v.4h2.5zm-26.5 11.1h11.3v-11.3l-11.3 11.3zm-2-8.5c-4.6-4.3-11.8-4-16 .6l8.3 7.7s6-6.3 7.7-8.3z"/>
<!-- <path id="Path_3110" class="st4" d="M46.1 39.8h2v1.4h-2.9c-.4 0-.7-.3-.8-.6l-.6-1.3h-.3v2.3h4.5l-.6 1.8h.7v2.6s-.1.8-1.2.8h-5.4v-1.3h4.7s.1 0 .1-.1v-.7h-1.3l.4-1.6h-4.7l-.7 2.6c-.1.6-.7 1.1-1.4 1h-1.5v-1.4h.8c.1 0 .3-.1.3-.3l.5-2h-1.6v-1.5h4.5v-2.3h-.3l-.6 1.3c-.3.5-.9.7-1.4.6h-2.1v-1.4h1.9c.1 0 .3-.1.3-.2l.1-.3h-2.4v-1.2h4.5v-.5h-4.6v-1.4h9.1c.1 0 .1-.1.2-.2v-.3h1.8v.8s-.1 1-1.5 1h-3v.6h4.6v1.3h-2.5l.1.3c.1.1.2.2.3.2zm-12.4-1.8l-.9-1.1h-5.5l-.9 1.3c-.1.1-.2.2-.4.2h-1.6v-1.4h.7l.1-.1 1-1.4h7.7l1 1.3c0 .1.1.1.2.1h.6v1.4h-1.5c-.3 0-.4-.1-.5-.3zm-11.7 8.7h-2.4v-1.3h1.4c.1 0 .2-.1.2-.2v-2.2h-7l-.4.5c-.2.2-.4.3-.6.3h-1.3v-1.5h.4c.1 0 .2 0 .3-.1l.6-1.1h-.8v-5.5h10.6v4.5c0 .6-.4 1.1-1 1.1h-6.6l-.3.5h7.9v4.1c0 .5-.5.9-1 .9zm-1.1-9.7h-6.8v.7h6.8v-.7zm-.1 2.8s.1 0 .1-.1v-.6h-6.8v.8l6.7-.1zm-7.6 5.3l1.2-1.6h2.2l-2.2 2.9c-.2.2-.5.3-.8.3h-1.8v-1.3h1.2c.1-.1.2-.2.2-.3zm4.1 1.6h-1.8v-1.3h.7c.1 0 .3-.1.3-.2l1.3-1.6h2.2l-2.2 2.8c-.1.2-.3.3-.5.3zm18.2-1.4v1.4h-11v-1.4h1.1v-6.2h1.6v6.2h1.9v-7.4h1.8v2.1h4.5v1.5h-4.5v3.9l4.6-.1z"/> -->
<path id="Path_3111" class="st4" d="M283.6 42.3c-2.5-2.3-6.5-2.2-8.8.3l4.6 4.2s3.2-3.5 4.2-4.5zm5.3 4.7h6v-6l-6 6zm26.6.2h-8.1v-5.7h8.1v5.7z"/><path id="Path_3112" class="st4" d="M155.1 42.8c.1 1-.2 1.9-.8 2.7-.5.7-1.4 1-2.2 1-.9 0-1.7-.3-2.2-1-.6-.8-.9-1.7-.8-2.7v-2.9c-.1-1 .2-1.9.8-2.7 1.1-1.2 3.1-1.3 4.3-.2l.2.2c.6.8.9 1.7.8 2.7v2.9zm-.4-3c0-.9-.2-1.7-.7-2.4-1-1.1-2.6-1.2-3.7-.2l-.2.2c-.5.7-.7 1.5-.7 2.4v2.9c0 .9.2 1.7.7 2.4.9 1.1 2.6 1.2 3.7.3l.3-.3c.5-.7.7-1.5.7-2.4l-.1-2.9zm8.1-3.1c-1 1.1-1.9 2.4-2.5 3.8-.7 1.5-1 3.2-1 4.9v.9h-.3v-.9c0-1.6.3-3.2.9-4.7.6-1.5 1.5-2.8 2.5-4h-5.9v-.4h6.4l-.1.4zm2.3 3.1h-.6v-.9h.6v.9zm0 6.5h-.6v-.9h.6v.9zm7.8-3.5c.1 1-.2 1.9-.8 2.7-.5.7-1.4 1-2.2 1-.9 0-1.7-.3-2.2-1-.6-.8-.9-1.7-.8-2.7v-2.9c-.1-1 .2-1.9.8-2.7 1.1-1.2 3.1-1.3 4.3-.2l.2.2c.6.8.9 1.7.8 2.7v2.9h-.1zm-.4-3c0-.9-.2-1.7-.7-2.4-1-1.1-2.6-1.2-3.7-.2l-.2.2c-.5.7-.7 1.5-.7 2.4v2.9c0 .9.2 1.7.7 2.4.9 1.1 2.6 1.2 3.7.3l.3-.3c.5-.7.7-1.5.7-2.4v-2.9zm7.9-1c0 .5-.2 1-.5 1.5-.3.4-.8.7-1.3.9.6.2 1.1.5 1.5.9.4.4.6 1 .6 1.6 0 .8-.3 1.5-.9 2.1-.6.5-1.4.8-2.2.7-.8 0-1.7-.2-2.3-.7-.6-.5-1-1.3-.9-2.1 0-.6.2-1.1.6-1.6.4-.5 1-.8 1.6-.9-.5-.1-1-.5-1.4-.9-.3-.4-.5-.9-.5-1.5 0-.7.3-1.5.8-1.9.6-.5 1.4-.7 2.1-.7.7 0 1.5.2 2 .7.6.4.9 1.2.8 1.9zm-.1 4.9c0-.7-.3-1.3-.8-1.7-.5-.4-1.2-.7-1.9-.7s-1.5.2-2 .7c-.5.4-.8 1-.8 1.7s.3 1.3.8 1.8c.6.4 1.3.7 2.1.6.7 0 1.4-.2 1.9-.7.5-.4.8-1.1.7-1.7zm-.2-4.9c0-.6-.2-1.2-.7-1.6-.5-.4-1.1-.6-1.7-.6-.7 0-1.3.2-1.9.6-.5.4-.8 1-.7 1.6 0 .6.3 1.2.7 1.6.5.4 1.2.6 1.9.6.6 0 1.2-.2 1.7-.6.4-.5.7-1 .7-1.6z"/></svg>