<?xml version="1.0" encoding="UTF-8" standalone="no"?>
<svg width="190px" height="150px" viewBox="0 0 190 150" version="1.1" xmlns="http://www.w3.org/2000/svg" xmlns:xlink="http://www.w3.org/1999/xlink">
    <!-- Generator: Sketch 45 (43475) - http://www.bohemiancoding.com/sketch -->
    <title>Group</title>
    <desc>Created with Sketch.</desc>
    <defs>
        <rect id="path-1" x="161" y="89" width="970" height="600" rx="3"></rect>
        <filter x="-3.3%" y="-4.7%" width="106.6%" height="110.7%" filterUnits="objectBoundingBox" id="filter-2">
            <feOffset dx="0" dy="4" in="SourceAlpha" result="shadowOffsetOuter1"></feOffset>
            <feGaussianBlur stdDeviation="10" in="shadowOffsetOuter1" result="shadowBlurOuter1"></feGaussianBlur>
            <feColorMatrix values="0 0 0 0 0   0 0 0 0 0   0 0 0 0 0  0 0 0 0.15 0" type="matrix" in="shadowBlurOuter1"></feColorMatrix>
        </filter>
    </defs>
    <g id="Page-1" stroke="none" stroke-width="1" fill="none" fill-rule="evenodd">
        <g id="音乐库购买为空" transform="translate(-631.000000, -234.000000)">
            <g id="bg" fill-rule="nonzero">
                <use fill="black" fill-opacity="1" filter="url(#filter-2)" xlink:href="#path-1"></use>
                <use fill="#FFFFFF" fill-rule="evenodd" xlink:href="#path-1"></use>
            </g>
            <g id="Group" transform="translate(631.000000, 234.000000)">
                <g id="搜索不到音乐" transform="translate(26.000000, 15.000000)">
                    <path d="M101.858381,40.7361557 C99.5288773,42.2686468 96.8623492,43.217483 94.0857652,43.5019016 C90.2156995,43.0532808 86.4505661,41.9509899 82.9518703,40.2423115 C82.9518703,40.2423115 83.1268799,41.0468525 83.4243963,42.4226393 C81.4648328,41.8728961 79.560721,41.1429868 77.7365828,40.2423115 C77.7365828,40.2423115 90.9016835,100.61668 90.0528867,105.369795 C90.0331563,105.492319 89.998633,105.612016 89.9500685,105.726279 C89.9664757,106.098025 89.97632,106.471951 89.97632,106.848057 C89.97632,120.443492 79.1990071,131.608951 65.4224665,132.873541 C51.6459258,131.608951 40.868613,120.445672 40.868613,106.848057 C40.868613,93.2504426 51.621862,82.1089672 65.3765265,80.8247541 C69.6087974,81.1960313 73.6981004,82.5353135 77.3264039,84.7384426 L76.5837067,82.0370164 C78.6695007,82.69784 80.668578,83.6047466 82.53841,84.7384426 L69.0976691,35.8020738 C69.0976691,35.8020738 64.8132142,18.5109836 76.8429398,16.4407623 C77.1426438,16.4800082 77.4292221,16.5072623 77.740958,16.5595902 C88.5303028,18.3725328 88.5598356,24.5613934 99.9562451,23.3458607 C102.836248,23.7361393 106.677709,23.4396148 112.498968,21.9133852 C112.653195,25.3877377 111.114204,34.5451148 101.858381,40.7361557 Z" id="矩形_14_拷贝" fill="#E6EBED"></path>
                    <path d="M88.2781474,117.606885 C89.860471,114.239638 90.679081,110.566313 90.6757795,106.848057 C90.6757795,106.471951 90.6659352,106.098025 90.6495281,105.726279 C90.6980926,105.612016 90.7326159,105.492319 90.7523462,105.369795 C91.601143,100.61668 78.4360423,40.2423115 78.4360423,40.2423115 C78.4360423,40.2423115 92.3460278,47.5638525 102.555653,40.7361557 C114.295519,32.8869754 113.622826,20.2519754 112.818875,20.5070738 L112.818875,20.5070738 C88.470658,28.2363361 92.1458606,18.8631066 78.4360423,16.5595902 C58.9990334,13.2890984 64.5807474,35.8020738 64.5807474,35.8020738 C64.5807474,35.8020738 66.8230585,43.9652213 69.4766422,53.6229836 M71.6194166,61.4241967 C72.1838227,63.4791557 72.7460412,65.522123 73.2885711,67.4975 M74.8483446,73.1761639 C76.6837583,79.8555984 78.0203944,84.7384426 78.0203944,84.7384426 C69.0191468,79.262207 57.6865848,79.3225527 48.7445619,84.8943361 C47.0872964,85.9303999 45.5470458,87.1416795 44.1505587,88.5071393 C39.1756775,93.3224139 36.3633125,99.9363686 36.3516913,106.848057 C36.3516913,121.291639 48.5115803,133 63.5120947,133 C66.7683189,133.004617 70.0002975,132.441985 73.0621524,131.3375 M78.7193392,128.519426 C80.5121696,127.351296 82.1596537,125.975346 83.627266,124.42041" id="矩形_14_拷贝_3" stroke="#CCD5DB" stroke-width="2" stroke-linecap="round" stroke-linejoin="round"></path>
                    <g id="组_7">
                        <path d="M14.766439,121.620869 C14.5974695,121.643444 14.4276018,121.586197 14.3070535,121.466051 C14.1865053,121.345904 14.1290665,121.176603 14.1517176,121.008197 L14.1517176,118.350377 C14.1517175,118.13149 14.2688828,117.929231 14.4590782,117.819787 C14.6492737,117.710344 14.8836042,117.710344 15.0737997,117.819787 C15.2639952,117.929231 15.3811604,118.13149 15.3811603,118.350377 L15.3811603,121.008197 C15.2997294,121.306599 15.0658392,121.539709 14.766439,121.620869 L14.766439,121.620869 L14.766439,121.620869 Z M14.766439,127.54918 C14.5974695,127.571756 14.4276018,127.514509 14.3070535,127.394362 C14.1865053,127.274216 14.1290665,127.104914 14.1517176,126.936508 L14.1517176,124.278689 C14.1517175,124.059802 14.2688828,123.857542 14.4590782,123.748099 C14.6492737,123.638655 14.8836042,123.638655 15.0737997,123.748099 C15.2639952,123.857542 15.3811604,124.059802 15.3811603,124.278689 L15.3811603,126.936508 C15.2997294,127.23491 15.0658392,127.468021 14.766439,127.54918 L14.766439,127.54918 L14.766439,127.54918 Z M13.7415387,122.643443 C13.7642666,122.812064 13.7066931,122.981592 13.5858791,123.101789 C13.465065,123.221987 13.2948683,123.279067 13.1257235,123.256115 L10.4601078,123.256115 C10.1303881,123.242256 9.8702404,122.97181 9.8702404,122.642898 C9.8702404,122.313985 10.1303881,122.043539 10.4601078,122.02968 L13.1257235,122.02968 C13.4572434,122.049499 13.7216541,122.313028 13.7415387,122.643443 L13.7415387,122.643443 L13.7415387,122.643443 Z M19.6874915,122.643443 C19.7102194,122.812064 19.6526459,122.981592 19.5318318,123.101789 C19.4110177,123.221987 19.2408211,123.279067 19.0716763,123.256115 L16.4071544,123.256115 C16.181152,123.265614 15.9681161,123.150858 15.8522734,122.957216 C15.7364308,122.763574 15.7364308,122.522221 15.8522734,122.328579 C15.9681161,122.134937 16.181152,122.020181 16.4071544,122.02968 L19.0716763,122.02968 C19.366854,122.119022 19.5978512,122.349249 19.6874915,122.643443 L19.6874915,122.643443 L19.6874915,122.643443 Z" id="矩形_3_拷贝" fill="#E6EBED"></path>
                        <path d="M130.71033,54.6662705 C130.465643,54.7014398 130.218641,54.6195619 130.043831,54.4453346 C129.869021,54.2711074 129.786869,54.024929 129.822156,53.7810574 L129.822156,49.9425902 C129.822156,49.4537005 130.219805,49.057377 130.71033,49.057377 C131.200855,49.057377 131.598504,49.4537005 131.598504,49.9425902 L131.598504,53.7810574 C131.480824,54.212186 131.142901,54.5489826 130.71033,54.6662705 L130.71033,54.6662705 L130.71033,54.6662705 Z M130.71033,63.2295082 C130.465745,63.2642001 130.219038,63.1821657 130.044347,63.0080578 C129.869657,62.8339498 129.787348,62.5880647 129.822156,62.3442951 L129.822156,58.5047377 C129.822156,58.015848 130.219805,57.6195246 130.71033,57.6195246 C131.200855,57.6195246 131.598504,58.015848 131.598504,58.5047377 L131.598504,62.3442951 C131.480427,62.7751945 131.142671,63.1118252 130.71033,63.2295082 L130.71033,63.2295082 L130.71033,63.2295082 Z M129.229311,56.1434426 C129.264119,56.3872123 129.18181,56.6330973 129.00712,56.8072053 C128.832429,56.9813133 128.585722,57.0633476 128.341137,57.0286557 L124.490925,57.0286557 C124.16598,57.0400193 123.860717,56.8737241 123.694864,56.5949923 C123.52901,56.3162605 123.52901,55.9695346 123.694864,55.6908027 C123.860717,55.4120709 124.16598,55.2457758 124.490925,55.2571393 L128.341137,55.2571393 C128.81975,55.2856051 129.201339,55.6663907 129.229311,56.1434426 L129.229311,56.1434426 L129.229311,56.1434426 Z M137.819003,56.1434426 C137.853893,56.387429 137.771451,56.6335444 137.596493,56.807705 C137.421535,56.9818655 137.174495,57.0637299 136.929735,57.0286557 L133.079523,57.0286557 C132.600825,57.0119153 132.221439,56.6202933 132.221439,56.1428975 C132.221439,55.6655018 132.600825,55.2738798 133.079523,55.2571393 L136.929735,55.2571393 C137.35601,55.3861147 137.689596,55.7185894 137.819003,56.1434426 L137.819003,56.1434426 L137.819003,56.1434426 Z" id="矩形_3_拷贝_2" fill="#E6EBED"></path>
                        <path d="M30.0797831,35.0433197 C29.8350957,35.078489 29.5880939,34.9966111 29.413284,34.8223838 C29.238474,34.6481566 29.1563222,34.4019782 29.1916091,34.1581066 L29.1916091,30.3196393 C29.1916091,29.8307496 29.5892581,29.4344262 30.0797831,29.4344262 C30.570308,29.4344262 30.967957,29.8307496 30.967957,30.3196393 L30.967957,34.1581066 C30.8502768,34.5892352 30.5123537,34.9260318 30.0797831,35.0433197 L30.0797831,35.0433197 L30.0797831,35.0433197 Z M30.0797831,43.6065574 C29.8351981,43.6412493 29.5884906,43.5592149 29.4138003,43.3851069 C29.2391099,43.210999 29.1568012,42.9651139 29.1916091,42.7213443 L29.1916091,38.8817869 C29.1916091,38.3928972 29.5892581,37.9965738 30.0797831,37.9965738 C30.570308,37.9965738 30.967957,38.3928972 30.967957,38.8817869 L30.967957,42.7213443 C30.8498805,43.1522437 30.5121237,43.4888744 30.0797831,43.6065574 L30.0797831,43.6065574 L30.0797831,43.6065574 Z M28.5987639,36.5204918 C28.6335719,36.7642615 28.5512631,37.0101465 28.3765728,37.1842545 C28.2018825,37.3583624 27.955175,37.4403968 27.71059,37.4057049 L23.8603777,37.4057049 C23.5354326,37.4170685 23.2301703,37.2507733 23.0643169,36.9720415 C22.8984634,36.6933097 22.8984634,36.3465837 23.0643169,36.0678519 C23.2301703,35.7891201 23.5354326,35.6228249 23.8603777,35.6341885 L27.71059,35.6341885 C28.1892027,35.6626543 28.5707921,36.0434399 28.5987639,36.5204918 L28.5987639,36.5204918 L28.5987639,36.5204918 Z M37.1884562,36.5204918 C37.2233464,36.7644782 37.1409042,37.0105936 36.9659459,37.1847542 C36.7909876,37.3589147 36.5439477,37.4407791 36.2991884,37.4057049 L32.4489762,37.4057049 C31.9702782,37.3889645 31.5908916,36.9973424 31.5908916,36.5199467 C31.5908916,36.042551 31.9702782,35.6509289 32.4489762,35.6341885 L36.2991884,35.6341885 C36.7254627,35.7631639 37.0590494,36.0956386 37.1884562,36.5204918 L37.1884562,36.5204918 L37.1884562,36.5204918 Z" id="矩形_3_拷贝_3" fill="#E6EBED"></path>
                        <path d="M107.193409,115.012295 C107.193409,117.721659 104.989689,119.918033 102.271262,119.918033 C99.5528361,119.918033 97.3491161,117.721659 97.3491161,115.012295 C97.3491161,112.302931 99.5528361,110.106557 102.271262,110.106557 C104.989689,110.106557 107.193409,112.302931 107.193409,115.012295 Z M102.271262,111.823566 C100.504285,111.823566 99.0718673,113.251208 99.0718673,115.012295 C99.0718673,116.773382 100.504285,118.201025 102.271262,118.201025 C104.03824,118.201025 105.470658,116.773382 105.470658,115.012295 C105.470054,113.251458 104.037989,111.824167 102.271262,111.823566 L102.271262,111.823566 Z" id="roll_拷贝" fill="#E6EBED"></path>
                        <path d="M7.65667206,67.045082 C7.65667206,69.1523652 5.94266763,70.8606557 3.82833603,70.8606557 C1.71400442,70.8606557 0,69.1523652 0,67.045082 C0,64.9377988 1.71400442,63.2295082 3.82833603,63.2295082 C5.94266763,63.2295082 7.65667206,64.9377988 7.65667206,67.045082 Z M3.82833603,64.564959 C2.45402048,64.564959 1.33991761,65.6753479 1.33991761,67.045082 C1.33991761,68.4148161 2.45402048,69.5252049 3.82833603,69.5252049 C5.20265157,69.5252049 6.31675445,68.4148161 6.31675445,67.045082 C6.31675445,65.6753479 5.20265157,64.564959 3.82833603,64.564959 Z" id="roll_拷贝_2" fill="#E6EBED"></path>
                        <path d="M133.444856,84.4877049 C133.444856,88.4012309 130.261705,91.5737705 126.335089,91.5737705 C122.408473,91.5737705 119.225322,88.4012309 119.225322,84.4877049 C119.225322,80.574179 122.408473,77.4016393 126.335089,77.4016393 C128.220716,77.4016393 130.029113,78.1482048 131.362453,79.4770999 C132.695793,80.805995 133.444856,82.6083635 133.444856,84.4877049 L133.444856,84.4877049 Z M126.335089,79.8817623 C123.782789,79.8817623 121.71374,81.943913 121.71374,84.4877049 C121.71374,87.0314968 123.782789,89.0936475 126.335089,89.0936475 C128.887389,89.0936475 130.956437,87.0314968 130.956437,84.4877049 C130.955834,81.9441624 128.887139,79.8823641 126.335089,79.8817623 Z" id="roll_拷贝_4" fill="#E6EBED"></path>
                        <ellipse id="椭圆_2" fill="#E6EBED" fill-rule="nonzero" cx="94.0676852" cy="3.2704918" rx="3.28143088" ry="3.2704918"></ellipse>
                        <g id="Group-2" transform="translate(47.000000, 101.000000)" fill="#CCD5DB">
                            <path d="M25.5185961,6.57254653 L31.4030498,0.697026671 C31.6703863,0.430819944 32.05991,0.326981637 32.4248911,0.424626636 C32.7898722,0.522271634 33.0748615,0.80656534 33.1725061,1.17041706 C33.2701508,1.53426879 33.1656163,1.92240079 32.8982799,2.18860751 L27.0138262,8.06412736 C26.6005598,8.47564728 25.9308226,8.47534834 25.5179262,8.06345967 C25.1050299,7.65157101 25.1053298,6.98406646 25.5185961,6.57254653 Z M25.5185961,0.697026671 C25.7168531,0.499364903 25.9857868,0.388314152 26.2662112,0.388314152 C26.5466355,0.388314152 26.8155692,0.499364903 27.0138262,0.697026671 L32.8982799,6.57254653 C33.3115462,6.98406645 33.3118461,7.65157101 32.8989498,8.06345969 C32.4860534,8.47534836 31.8163162,8.47564729 31.4030498,8.06412736 L25.5185961,2.18860751 C25.1079653,1.77667559 25.1079653,1.11162928 25.5185961,0.699697361 L25.5185961,0.697026671 Z" id="圆角矩形_3_拷贝"></path>
                            <path d="M0.340176991,6.57254653 L6.22463068,0.697026671 C6.49196713,0.430819944 6.88149082,0.326981637 7.24647195,0.424626636 C7.61145307,0.522271634 7.89644231,0.80656534 7.99408697,1.17041706 C8.09173164,1.53426879 7.98719718,1.92240079 7.71986071,2.18860751 L1.83540703,8.06412736 C1.42214067,8.47564728 0.752403468,8.47534834 0.339507101,8.06345967 C-0.0733892654,7.65157101 -0.0730893454,6.98406646 0.340176991,6.57254653 Z M0.340176991,0.697026671 C0.538433959,0.499364903 0.807367689,0.388314152 1.08779201,0.388314152 C1.36821633,0.388314152 1.63715006,0.499364903 1.83540703,0.697026671 L7.71986071,6.57254653 C7.98719718,6.83875324 8.09173164,7.22688525 7.99408697,7.59073697 C7.89644231,7.95458869 7.61145307,8.2388824 7.24647195,8.3365274 C6.88149082,8.4341724 6.49196713,8.33033409 6.22463068,8.06412736 L0.340176991,2.18860751 C-0.070453879,1.77667559 -0.070453879,1.11162928 0.340176991,0.699697361 L0.340176991,0.697026671 Z" id="圆角矩形_3_拷贝_2"></path>
                            <path d="M22.4700794,17.2598934 L16.4475599,14.630418 C16.2001395,14.5225727 15.9175942,14.5289546 15.6753298,14.6478607 L10.3495675,17.2773361 C10.1389424,17.3780731 9.97821804,17.5595171 9.90403149,17.7803079 C9.82984494,18.0010987 9.8485186,18.2424199 9.9557958,18.4492623 C10.1879457,18.8790319 10.7199847,19.0482348 11.1589871,18.8319098 L16.1041035,16.3910328 L21.7350388,18.8493525 C21.8509124,18.8999097 21.9760689,18.925897 22.1025591,18.9256639 C22.4517881,18.9278933 22.7704009,18.7274022 22.9185416,18.4121967 C23.0160563,18.2006997 23.023526,17.9588693 22.9392492,17.7417943 C22.8549724,17.5247194 22.686126,17.3508861 22.4711732,17.2598934 L22.4711732,17.2598934 L22.4700794,17.2598934 Z" id="矩形_17"></path>
                        </g>
                    </g>
                    <path d="M36.0957397,91.5737705 C35.8375478,91.6085744 35.5761609,91.5384167 35.3704235,91.3790916 C35.164686,91.2197666 35.0318894,90.9846647 35.0019294,90.7267131 L35.0019294,83.7016967 C35.1277812,83.2018077 35.5786303,82.851282 36.0957397,82.851282 C36.6128491,82.851282 37.0636981,83.2018077 37.18955,83.7016967 L37.18955,90.7267131 C37.1595899,90.9846647 37.0267933,91.2197666 36.8210559,91.3790916 C36.6153185,91.5384167 36.3539316,91.6085744 36.0957397,91.5737705 L36.0957397,91.5737705 Z" id="矩形_6_拷贝_7" fill="#CCD5DB"></path>
                    <path d="M30.6266882,95.9344262 C30.3102381,95.9163093 30.0148258,95.77057 29.8084753,95.5307674 C29.6021249,95.2909649 29.5026216,94.9777677 29.5328779,94.6632951 L29.5328779,84.1257705 C29.4689964,83.6976928 29.6624008,83.2719713 30.0273218,83.037401 C30.3922429,82.8028307 30.8611336,82.8028307 31.2260546,83.037401 C31.5909757,83.2719713 31.78438,83.6976928 31.7204985,84.1257705 L31.7204985,94.6632951 C31.7507549,94.9777677 31.6512516,95.2909649 31.4449011,95.5307674 C31.2385506,95.77057 30.9431384,95.9163093 30.6266882,95.9344262 L30.6266882,95.9344262 L30.6266882,95.9344262 Z" id="矩形_6_拷贝_8" fill="#CCD5DB"></path>
                    <path d="M25.1576368,100.295082 C24.3969775,100.112292 23.9151282,99.3655137 24.0638265,98.599877 L24.0638265,84.5487541 C23.8323533,84.045322 23.9768595,83.4493902 24.4134632,83.1068803 C24.850067,82.7643704 25.4652065,82.7643704 25.9018103,83.1068803 C26.3384141,83.4493902 26.4829203,84.045322 26.251447,84.5487541 L26.251447,98.5987869 C26.400798,99.3647974 25.9188009,100.112285 25.1576368,100.295082 L25.1576368,100.295082 Z" id="矩形_6_拷贝_9" fill="#CCD5DB"></path>
                    <path d="M85.6934736,27.2540984 C85.9420822,27.1995806 86.1671285,27.0683598 86.3366341,26.879082 C86.7690825,26.3664142 86.7616506,25.6159865 86.3191331,25.1119262 C83.5346352,22.2123408 79.6505671,20.6202601 75.6249499,20.728377 C74.9621339,20.7939871 74.4728233,21.3745579 74.5223891,22.0365738 C74.561395,22.7040203 75.1116929,23.2277267 75.7824586,23.2357541 C79.1421558,23.153818 82.3856454,24.4634666 84.7407649,26.852918 C84.910716,27.207868 85.3177342,27.382987 85.6934736,27.2628197 L85.6934736,27.2628197 L85.6934736,27.2540984 Z M88.3809655,28.009582 C88.2324911,27.738342 87.9755065,27.5426365 87.6739095,27.4711265 C87.3723124,27.3996164 87.0544351,27.4590195 86.7993158,27.6345656 C86.2580248,28.0106514 86.1163126,28.748291 86.4799232,29.2970656 L88.3809655,28.009582 Z" id="矩形_12_拷贝_2" fill="#FFFFFF"></path>
                </g>
            </g>
        </g>
    </g>
</svg>