<?xml version="1.0" encoding="utf-8"?><!DOCTYPE svg PUBLIC "-//W3C//DTD SVG 1.1//EN" "http://www.w3.org/Graphics/SVG/1.1/DTD/svg11.dtd"><svg version="1.1" baseProfile="full" xmlns="http://www.w3.org/2000/svg" xmlns:xlink="http://www.w3.org/1999/xlink" xmlns:ev="http://www.w3.org/2001/xml-events"   height="350px"   width="350px" ><path stroke="rgb( 14, 5, 10 )" stroke-width="0px" stroke-linecap="butt" stroke-linejoin="miter" fill="rgb( 68, 203, 131 )" d="M175,0 C271.65,0 350,78.35 350,175 C350,271.65 271.65,350 175,350 C78.35,350 0,271.65 0,175 C0,78.35 78.35,0 175,0 Z "/><path stroke="rgb( 14, 5, 10 )" stroke-width="0px" stroke-linecap="butt" stroke-linejoin="miter" fill="rgb( 233, 148, 56 )" d="M77,106 C77,106 271,106 271,106 C272.657,106 274,107.343 274,109 C274,109 274,243 274,243 C274,244.657 272.657,246 271,246 C271,246 77,246 77,246 C75.343,246 74,244.657 74,243 C74,243 74,109 74,109 C74,107.343 75.343,106 77,106 Z "/><path stroke="rgb( 14, 5, 10 )" stroke-width="0px" stroke-linecap="butt" stroke-linejoin="miter" fill="rgb( 242, 166, 83 )" d="M77,112 C77,112 271,112 271,112 C272.657,112 274,113.343 274,115 C274,115 274,249 274,249 C274,250.657 272.657,252 271,252 C271,252 77,252 77,252 C75.343,252 74,250.657 74,249 C74,249 74,115 74,115 C74,113.343 75.343,112 77,112 Z "/><path stroke="rgb( 14, 5, 10 )" stroke-width="0px" stroke-linecap="butt" stroke-linejoin="miter" fill="rgb( 255, 255, 255 )" d="M86.828,93.99 C86.828,93.99 251.64,86.118 251.64,86.118 C251.64,86.118 256.172,181.01 256.172,181.01 C256.172,181.01 91.36,188.882 91.36,188.882 C91.36,188.882 86.828,93.99 86.828,93.99 Z "/><path stroke="rgb( 14, 5, 10 )" stroke-width="0px" stroke-linecap="butt" stroke-linejoin="miter" fill="rgb( 250, 191, 45 )" d="M77,125 C77,125 271,125 271,125 C272.657,125 274,126.343 274,128 C274,128 274,262 274,262 C274,263.657 272.657,265 271,265 C271,265 77,265 77,265 C75.343,265 74,263.657 74,262 C74,262 74,128 74,128 C74,126.343 75.343,125 77,125 Z "/><path stroke="rgb( 14, 5, 10 )" stroke-width="0px" stroke-linecap="butt" stroke-linejoin="miter" fill="rgb( 255, 255, 255 )" d="M159,235 C159,235 189,235 189,235 C189,235 189,238 189,238 C189,238 159,238 159,238 C159,238 159,235 159,235 Z "/><path stroke="rgb( 14, 5, 10 )" stroke-width="0px" stroke-linecap="butt" stroke-linejoin="miter" fill="rgb( 255, 255, 255 )" d="M190.931,182.546 C190.731,184.755 190.089,186.86 189.074,188.802 C189.013,188.911 182.999,199.739 182.999,206.506 C182.999,206.506 182.795,208.508 182.795,208.508 C182.469,209.844 181.792,210.522 180.775,210.522 C180.775,210.522 169.223,210.522 169.223,210.522 C168.21,210.522 167.531,209.844 167.205,208.508 C167.205,208.508 167,206.506 167,206.506 C167,199.739 160.986,188.911 160.974,188.802 C159.912,186.86 159.268,184.755 159.068,182.546 C159.068,182.546 159,181.068 159,181.068 C159,176.778 160.662,172.744 163.684,169.709 C166.708,166.673 170.725,165 175.001,165 C176.539,165 178.056,165.219 179.517,165.649 C182.073,166.404 184.422,167.808 186.316,169.709 C189.336,172.744 191,176.776 191,181.068 C191,181.068 190.931,182.546 190.931,182.546 ZM167.728,212.829 C167.728,212.03 168.391,211.383 169.207,211.383 C169.207,211.383 180.792,211.383 180.792,211.383 C181.608,211.383 182.271,212.03 182.271,212.829 C182.271,213.631 181.608,214.28 180.792,214.28 C181.608,214.28 182.271,214.93 182.271,215.729 C182.271,216.529 181.608,217.178 180.792,217.178 C181.608,217.178 182.271,217.828 182.271,218.627 C182.271,219.429 181.608,220.078 180.792,220.078 C180.792,220.078 169.207,220.078 169.207,220.078 C168.391,220.078 167.728,219.429 167.728,218.627 C167.728,217.828 168.391,217.178 169.207,217.178 C168.391,217.178 167.728,216.529 167.728,215.729 C167.728,214.93 168.391,214.28 169.207,214.28 C168.391,214.28 167.728,213.631 167.728,212.829 ZM175.001,223 C173.096,223 171.411,222.07 170.361,220.639 C170.361,220.639 179.639,220.639 179.639,220.639 C178.591,222.07 176.904,223 175.001,223 Z "/></svg>